<svg width="30" height="32" viewBox="0 0 30 32" fill="none" xmlns="http://www.w3.org/2000/svg">
<g clip-path="url(#clip0_1811_38966)">
<path d="M7.75 16.0916L12 15.0916L21.2929 5.79876C21.6834 5.40823 21.6834 4.77507 21.2929 4.38454L19.4571 2.54876C19.0666 2.15823 18.4334 2.15823 18.0429 2.54876L8.75 11.8416L7.75 16.0916Z" stroke="#747488" stroke-width="1.5" stroke-linecap="round" stroke-linejoin="round"/>
<path d="M22.25 16.0918H16.75" stroke="#747488" stroke-width="1.5" stroke-linecap="round" stroke-linejoin="round"/>
</g>
<path d="M0.624 28.8978C0.464 28.8978 0.352 28.8471 0.288 28.7458C0.229333 28.6391 0.234667 28.5111 0.304 28.3618L2.472 23.4978C2.52533 23.3751 2.592 23.2871 2.672 23.2338C2.752 23.1751 2.84533 23.1458 2.952 23.1458C3.048 23.1458 3.136 23.1751 3.216 23.2338C3.30133 23.2871 3.37067 23.3751 3.424 23.4978L5.592 28.3618C5.66133 28.5165 5.66667 28.6445 5.608 28.7458C5.55467 28.8471 5.45067 28.8978 5.296 28.8978C5.17867 28.8978 5.08533 28.8685 5.016 28.8098C4.94667 28.7511 4.88533 28.6605 4.832 28.5378L4.368 27.4658H1.512L1.056 28.5378C1.00267 28.6658 0.944 28.7591 0.88 28.8178C0.816 28.8711 0.730667 28.8978 0.624 28.8978ZM2.936 24.1218L1.808 26.7938H4.088L2.952 24.1218H2.936ZM8.01325 28.9138C7.52258 28.9138 7.15725 28.7885 6.91725 28.5378C6.67725 28.2871 6.55725 27.9245 6.55725 27.4498V25.5618H6.07725C5.85325 25.5618 5.74125 25.4578 5.74125 25.2498C5.74125 25.0418 5.85325 24.9378 6.07725 24.9378H6.55725V24.1138C6.55725 23.8418 6.69325 23.7058 6.96525 23.7058C7.23192 23.7058 7.36525 23.8418 7.36525 24.1138V24.9378H8.30125C8.52525 24.9378 8.63725 25.0418 8.63725 25.2498C8.63725 25.4578 8.52525 25.5618 8.30125 25.5618H7.36525V27.3858C7.36525 27.6685 7.42392 27.8818 7.54125 28.0258C7.66392 28.1698 7.86125 28.2418 8.13325 28.2418C8.22925 28.2418 8.31192 28.2338 8.38125 28.2178C8.45058 28.1965 8.51192 28.1831 8.56525 28.1778C8.62392 28.1778 8.67192 28.1991 8.70925 28.2418C8.74658 28.2791 8.76525 28.3538 8.76525 28.4658C8.76525 28.5511 8.74925 28.6285 8.71725 28.6978C8.69058 28.7618 8.63992 28.8045 8.56525 28.8258C8.50125 28.8525 8.41325 28.8738 8.30125 28.8898C8.19458 28.9058 8.09858 28.9138 8.01325 28.9138ZM11.0641 28.9138C10.4241 28.9138 9.92006 28.7351 9.55206 28.3778C9.18406 28.0151 9.00006 27.5218 9.00006 26.8978C9.00006 26.4978 9.08006 26.1458 9.24006 25.8418C9.4054 25.5325 9.63206 25.2925 9.92006 25.1218C10.2081 24.9511 10.5387 24.8658 10.9121 24.8658C11.4507 24.8658 11.8747 25.0391 12.1841 25.3858C12.4934 25.7271 12.6481 26.1991 12.6481 26.8018C12.6481 26.9831 12.5414 27.0738 12.3281 27.0738H9.78406C9.84273 27.8845 10.2721 28.2898 11.0721 28.2898C11.2321 28.2898 11.4001 28.2711 11.5761 28.2338C11.7521 28.1911 11.9227 28.1165 12.0881 28.0098C12.2001 27.9458 12.2961 27.9245 12.3761 27.9458C12.4614 27.9618 12.5227 28.0071 12.5601 28.0818C12.5974 28.1511 12.6027 28.2311 12.5761 28.3218C12.5547 28.4071 12.4934 28.4818 12.3921 28.5458C12.2107 28.6685 11.9974 28.7618 11.7521 28.8258C11.5121 28.8845 11.2827 28.9138 11.0641 28.9138ZM10.9441 25.4338C10.6081 25.4338 10.3414 25.5378 10.1441 25.7458C9.94673 25.9538 9.82673 26.2311 9.78406 26.5778H11.9681C11.9521 26.2151 11.8561 25.9351 11.6801 25.7378C11.5041 25.5351 11.2587 25.4338 10.9441 25.4338ZM13.9289 28.8978C13.6623 28.8978 13.5289 28.7618 13.5289 28.4898V25.2898C13.5289 25.0178 13.6596 24.8818 13.9209 24.8818C14.1823 24.8818 14.3129 25.0178 14.3129 25.2898V25.5858C14.4463 25.3511 14.6276 25.1725 14.8569 25.0498C15.0916 24.9271 15.3529 24.8658 15.6409 24.8658C16.5636 24.8658 17.0249 25.3885 17.0249 26.4338V28.4898C17.0249 28.7618 16.8916 28.8978 16.6249 28.8978C16.3529 28.8978 16.2169 28.7618 16.2169 28.4898V26.4818C16.2169 26.1458 16.1503 25.9005 16.0169 25.7458C15.8889 25.5911 15.6863 25.5138 15.4089 25.5138C15.0836 25.5138 14.8223 25.6178 14.6249 25.8258C14.4329 26.0285 14.3369 26.2978 14.3369 26.6338V28.4898C14.3369 28.7618 14.2009 28.8978 13.9289 28.8978ZM19.6263 28.9138C19.285 28.9138 18.9836 28.8338 18.7223 28.6738C18.4663 28.5085 18.2663 28.2738 18.1223 27.9698C17.9783 27.6658 17.9063 27.3058 17.9063 26.8898C17.9063 26.4738 17.9783 26.1165 18.1223 25.8178C18.2663 25.5138 18.4663 25.2791 18.7223 25.1138C18.9783 24.9485 19.2796 24.8658 19.6263 24.8658C19.9196 24.8658 20.181 24.9298 20.4103 25.0578C20.6396 25.1858 20.8103 25.3591 20.9223 25.5778V23.5538C20.9223 23.2818 21.0556 23.1458 21.3223 23.1458C21.5943 23.1458 21.7303 23.2818 21.7303 23.5538V28.4898C21.7303 28.7618 21.597 28.8978 21.3303 28.8978C21.0636 28.8978 20.9303 28.7618 20.9303 28.4898V28.1858C20.813 28.4098 20.6396 28.5885 20.4103 28.7218C20.181 28.8498 19.9196 28.9138 19.6263 28.9138ZM19.8343 28.2898C20.165 28.2898 20.4316 28.1698 20.6343 27.9298C20.837 27.6898 20.9383 27.3431 20.9383 26.8898C20.9383 26.4365 20.837 26.0925 20.6343 25.8578C20.4316 25.6178 20.165 25.4978 19.8343 25.4978C19.4983 25.4978 19.229 25.6178 19.0263 25.8578C18.8236 26.0925 18.7223 26.4365 18.7223 26.8898C18.7223 27.3431 18.8236 27.6898 19.0263 27.9298C19.229 28.1698 19.4983 28.2898 19.8343 28.2898ZM24.6969 28.9138C24.0569 28.9138 23.5529 28.7351 23.1849 28.3778C22.8169 28.0151 22.6329 27.5218 22.6329 26.8978C22.6329 26.4978 22.7129 26.1458 22.8729 25.8418C23.0382 25.5325 23.2649 25.2925 23.5529 25.1218C23.8409 24.9511 24.1715 24.8658 24.5449 24.8658C25.0835 24.8658 25.5075 25.0391 25.8169 25.3858C26.1262 25.7271 26.2809 26.1991 26.2809 26.8018C26.2809 26.9831 26.1742 27.0738 25.9609 27.0738H23.4169C23.4755 27.8845 23.9049 28.2898 24.7049 28.2898C24.8649 28.2898 25.0329 28.2711 25.2089 28.2338C25.3849 28.1911 25.5555 28.1165 25.7209 28.0098C25.8329 27.9458 25.9289 27.9245 26.0089 27.9458C26.0942 27.9618 26.1555 28.0071 26.1929 28.0818C26.2302 28.1511 26.2355 28.2311 26.2089 28.3218C26.1875 28.4071 26.1262 28.4818 26.0249 28.5458C25.8435 28.6685 25.6302 28.7618 25.3849 28.8258C25.1449 28.8845 24.9155 28.9138 24.6969 28.9138ZM24.5769 25.4338C24.2409 25.4338 23.9742 25.5378 23.7769 25.7458C23.5795 25.9538 23.4595 26.2311 23.4169 26.5778H25.6009C25.5849 26.2151 25.4889 25.9351 25.3129 25.7378C25.1369 25.5351 24.8915 25.4338 24.5769 25.4338ZM27.5698 28.8978C27.2978 28.8978 27.1618 28.7618 27.1618 28.4898V25.2898C27.1618 25.0178 27.2924 24.8818 27.5538 24.8818C27.8151 24.8818 27.9458 25.0178 27.9458 25.2898V25.6338C28.0524 25.3938 28.2124 25.2098 28.4258 25.0818C28.6444 24.9538 28.9084 24.8791 29.2178 24.8578C29.4151 24.8418 29.5218 24.9485 29.5378 25.1778C29.5591 25.4125 29.4444 25.5405 29.1938 25.5618L29.0418 25.5778C28.3324 25.6471 27.9778 26.0125 27.9778 26.6738V28.4898C27.9778 28.7618 27.8418 28.8978 27.5698 28.8978Z" fill="#747488"/>
<defs>
<clipPath id="clip0_1811_38966">
<rect width="16" height="16" fill="white" transform="translate(7 0.841797)"/>
</clipPath>
</defs>
</svg>
