<svg width="26" height="32" viewBox="0 0 26 32" fill="none" xmlns="http://www.w3.org/2000/svg">
<g clip-path="url(#clip0_1801_54717)">
<path d="M7.25 3.82617L8.09115 13.4995C8.18102 14.533 9.04622 15.3262 10.0836 15.3262H14.9164C15.9538 15.3262 16.819 14.533 16.9088 13.4995L17.75 3.82617" stroke="#AE1100" stroke-width="1.5" stroke-linecap="round" stroke-linejoin="round"/>
<path d="M10.25 3.57617V2.82617C10.25 1.7216 11.1454 0.826172 12.25 0.826172H12.75C13.8546 0.826172 14.75 1.7216 14.75 2.82617V3.57617" stroke="#AE1100" stroke-width="1.5" stroke-linecap="round" stroke-linejoin="round"/>
<path d="M5.5 3.82617H19.5" stroke="#AE1100" stroke-width="1.5" stroke-linecap="round" stroke-linejoin="round"/>
</g>
<path d="M1.604 28.0762C1.30533 28.0762 1.156 27.9268 1.156 27.6282V22.8842C1.156 22.5855 1.30533 22.4362 1.604 22.4362H4.524C4.75333 22.4362 4.868 22.5455 4.868 22.7642C4.868 22.9935 4.75333 23.1082 4.524 23.1082H1.956V24.8762H4.348C4.57733 24.8762 4.692 24.9882 4.692 25.2122C4.692 25.4362 4.57733 25.5482 4.348 25.5482H1.956V27.4042H4.524C4.75333 27.4042 4.868 27.5162 4.868 27.7402C4.868 27.9642 4.75333 28.0762 4.524 28.0762H1.604ZM5.91494 28.1242C5.77094 28.1242 5.66694 28.0655 5.60294 27.9482C5.54427 27.8308 5.5736 27.6975 5.69094 27.5482L6.89094 26.0602L5.77894 24.6842C5.65627 24.5402 5.62694 24.4095 5.69094 24.2922C5.75494 24.1748 5.85627 24.1162 5.99494 24.1162C6.09627 24.1162 6.17894 24.1348 6.24294 24.1722C6.31227 24.2042 6.37627 24.2602 6.43494 24.3402L7.35494 25.5082L8.28294 24.3402C8.3416 24.2602 8.40294 24.2042 8.46694 24.1722C8.53094 24.1348 8.6136 24.1162 8.71494 24.1162C8.8536 24.1162 8.95494 24.1748 9.01894 24.2922C9.08294 24.4095 9.0536 24.5428 8.93094 24.6922L7.81894 26.0682L9.01894 27.5482C9.13627 27.6922 9.16294 27.8255 9.09894 27.9482C9.04027 28.0655 8.93894 28.1242 8.79494 28.1242C8.61894 28.1242 8.47227 28.0495 8.35494 27.9002L7.34694 26.6362L6.34694 27.9002C6.28827 27.9748 6.22694 28.0308 6.16294 28.0682C6.09894 28.1055 6.01627 28.1242 5.91494 28.1242ZM11.6786 28.1482C11.2786 28.1482 10.932 28.0655 10.6386 27.9002C10.3506 27.7295 10.1266 27.4922 9.96663 27.1882C9.80663 26.8788 9.72663 26.5162 9.72663 26.1002C9.72663 25.4815 9.90263 24.9935 10.2546 24.6362C10.6066 24.2788 11.0813 24.1002 11.6786 24.1002C11.8653 24.1002 12.06 24.1295 12.2626 24.1882C12.4706 24.2415 12.6626 24.3322 12.8386 24.4602C12.924 24.5135 12.972 24.5828 12.9826 24.6682C12.9986 24.7482 12.9853 24.8255 12.9426 24.9002C12.9053 24.9695 12.8493 25.0175 12.7746 25.0442C12.7 25.0655 12.6146 25.0495 12.5186 24.9962C12.3906 24.9055 12.26 24.8415 12.1266 24.8042C11.9933 24.7615 11.8653 24.7402 11.7426 24.7402C11.364 24.7402 11.0706 24.8602 10.8626 25.1002C10.66 25.3348 10.5586 25.6708 10.5586 26.1082C10.5586 26.5455 10.66 26.8895 10.8626 27.1402C11.0706 27.3855 11.364 27.5082 11.7426 27.5082C11.8653 27.5082 11.9906 27.4895 12.1186 27.4522C12.252 27.4148 12.3853 27.3508 12.5186 27.2602C12.6146 27.2068 12.6973 27.1935 12.7666 27.2202C12.8413 27.2468 12.8946 27.2975 12.9266 27.3722C12.964 27.4415 12.9746 27.5188 12.9586 27.6042C12.948 27.6842 12.9 27.7508 12.8146 27.8042C12.644 27.9268 12.4573 28.0148 12.2546 28.0682C12.0573 28.1215 11.8653 28.1482 11.6786 28.1482ZM14.949 28.1482C14.533 28.1482 14.2183 28.0282 14.005 27.7882C13.797 27.5482 13.693 27.1962 13.693 26.7322V22.7882C13.693 22.5162 13.8263 22.3802 14.093 22.3802C14.365 22.3802 14.501 22.5162 14.501 22.7882V26.6842C14.501 27.2122 14.7143 27.4762 15.141 27.4762C15.189 27.4762 15.2317 27.4735 15.269 27.4682C15.3063 27.4628 15.3437 27.4602 15.381 27.4602C15.445 27.4548 15.4903 27.4735 15.517 27.5162C15.5437 27.5535 15.557 27.6335 15.557 27.7562C15.557 27.9748 15.4557 28.1002 15.253 28.1322C15.1997 28.1375 15.1463 28.1402 15.093 28.1402C15.045 28.1455 14.997 28.1482 14.949 28.1482ZM17.5303 28.1482C16.5863 28.1482 16.1143 27.6228 16.1143 26.5722V24.5242C16.1143 24.2522 16.2476 24.1162 16.5143 24.1162C16.7863 24.1162 16.9223 24.2522 16.9223 24.5242V26.5802C16.9223 26.8948 16.9863 27.1268 17.1143 27.2762C17.2423 27.4255 17.445 27.5002 17.7223 27.5002C18.0263 27.5002 18.2716 27.3988 18.4583 27.1962C18.6503 26.9935 18.7463 26.7215 18.7463 26.3802V24.5242C18.7463 24.2522 18.8823 24.1162 19.1543 24.1162C19.421 24.1162 19.5543 24.2522 19.5543 24.5242V27.7242C19.5543 27.9962 19.4236 28.1322 19.1623 28.1322C18.901 28.1322 18.7703 27.9962 18.7703 27.7242V27.4522C18.6423 27.6815 18.4716 27.8548 18.2583 27.9722C18.045 28.0895 17.8023 28.1482 17.5303 28.1482ZM21.093 23.3002C20.933 23.3002 20.8077 23.2602 20.717 23.1802C20.6317 23.1002 20.589 22.9882 20.589 22.8442C20.589 22.5402 20.757 22.3882 21.093 22.3882C21.429 22.3882 21.597 22.5402 21.597 22.8442C21.597 23.1482 21.429 23.3002 21.093 23.3002ZM21.093 28.1242C20.8263 28.1242 20.693 27.9775 20.693 27.6842V24.5642C20.693 24.2762 20.8263 24.1322 21.093 24.1322C21.365 24.1322 21.501 24.2762 21.501 24.5642V27.6842C21.501 27.9775 21.365 28.1242 21.093 28.1242ZM23.0463 28.1322C22.7743 28.1322 22.6383 27.9962 22.6383 27.7242V24.5242C22.6383 24.2522 22.769 24.1162 23.0303 24.1162C23.2916 24.1162 23.4223 24.2522 23.4223 24.5242V24.8682C23.529 24.6282 23.689 24.4442 23.9023 24.3162C24.121 24.1882 24.385 24.1135 24.6943 24.0922C24.8916 24.0762 24.9983 24.1828 25.0143 24.4122C25.0356 24.6468 24.921 24.7748 24.6703 24.7962L24.5183 24.8122C23.809 24.8815 23.4543 25.2468 23.4543 25.9082V27.7242C23.4543 27.9962 23.3183 28.1322 23.0463 28.1322Z" fill="#AE1100"/>
<defs>
<clipPath id="clip0_1801_54717">
<rect width="17" height="16" fill="white" transform="translate(4.5 0.0761719)"/>
</clipPath>
</defs>
</svg>
