<svg width="23" height="32" viewBox="0 0 23 32" fill="none" xmlns="http://www.w3.org/2000/svg">
<g clip-path="url(#clip0_1801_54711)">
<path d="M4.25 15.326L8.5 14.326L17.7929 5.03313C18.1834 4.6426 18.1834 4.00944 17.7929 3.61891L15.9571 1.78313C15.5666 1.3926 14.9334 1.3926 14.5429 1.78313L5.25 11.076L4.25 15.326Z" stroke="#747488" stroke-width="1.5" stroke-linecap="round" stroke-linejoin="round"/>
<path d="M18.75 15.3262H13.25" stroke="#747488" stroke-width="1.5" stroke-linecap="round" stroke-linejoin="round"/>
</g>
<path d="M1.604 28.0762C1.30533 28.0762 1.156 27.9268 1.156 27.6282V22.8842C1.156 22.5855 1.30533 22.4362 1.604 22.4362H4.524C4.75333 22.4362 4.868 22.5455 4.868 22.7642C4.868 22.9935 4.75333 23.1082 4.524 23.1082H1.956V24.8762H4.348C4.57733 24.8762 4.692 24.9882 4.692 25.2122C4.692 25.4362 4.57733 25.5482 4.348 25.5482H1.956V27.4042H4.524C4.75333 27.4042 4.868 27.5162 4.868 27.7402C4.868 27.9642 4.75333 28.0762 4.524 28.0762H1.604ZM7.23569 28.1482C6.89435 28.1482 6.59302 28.0682 6.33169 27.9082C6.07569 27.7428 5.87569 27.5082 5.73169 27.2042C5.58769 26.9002 5.51569 26.5402 5.51569 26.1242C5.51569 25.7082 5.58769 25.3508 5.73169 25.0522C5.87569 24.7482 6.07569 24.5135 6.33169 24.3482C6.58769 24.1828 6.88902 24.1002 7.23569 24.1002C7.52902 24.1002 7.79035 24.1642 8.01969 24.2922C8.24902 24.4202 8.41969 24.5935 8.53169 24.8122V22.7882C8.53169 22.5162 8.66502 22.3802 8.93169 22.3802C9.20369 22.3802 9.33969 22.5162 9.33969 22.7882V27.7242C9.33969 27.9962 9.20635 28.1322 8.93969 28.1322C8.67302 28.1322 8.53969 27.9962 8.53969 27.7242V27.4202C8.42235 27.6442 8.24902 27.8228 8.01969 27.9562C7.79035 28.0842 7.52902 28.1482 7.23569 28.1482ZM7.44369 27.5242C7.77435 27.5242 8.04102 27.4042 8.24369 27.1642C8.44635 26.9242 8.54769 26.5775 8.54769 26.1242C8.54769 25.6708 8.44635 25.3268 8.24369 25.0922C8.04102 24.8522 7.77435 24.7322 7.44369 24.7322C7.10769 24.7322 6.83835 24.8522 6.63569 25.0922C6.43302 25.3268 6.33169 25.6708 6.33169 26.1242C6.33169 26.5775 6.43302 26.9242 6.63569 27.1642C6.83835 27.4042 7.10769 27.5242 7.44369 27.5242ZM10.8743 23.3002C10.7143 23.3002 10.5889 23.2602 10.4983 23.1802C10.4129 23.1002 10.3703 22.9882 10.3703 22.8442C10.3703 22.5402 10.5383 22.3882 10.8743 22.3882C11.2103 22.3882 11.3783 22.5402 11.3783 22.8442C11.3783 23.1482 11.2103 23.3002 10.8743 23.3002ZM10.8743 28.1242C10.6076 28.1242 10.4743 27.9775 10.4743 27.6842V24.5642C10.4743 24.2762 10.6076 24.1322 10.8743 24.1322C11.1463 24.1322 11.2823 24.2762 11.2823 24.5642V27.6842C11.2823 27.9775 11.1463 28.1242 10.8743 28.1242ZM14.0836 28.1482C13.5929 28.1482 13.2276 28.0228 12.9876 27.7722C12.7476 27.5215 12.6276 27.1588 12.6276 26.6842V24.7962H12.1476C11.9236 24.7962 11.8116 24.6922 11.8116 24.4842C11.8116 24.2762 11.9236 24.1722 12.1476 24.1722H12.6276V23.3482C12.6276 23.0762 12.7636 22.9402 13.0356 22.9402C13.3022 22.9402 13.4356 23.0762 13.4356 23.3482V24.1722H14.3716C14.5956 24.1722 14.7076 24.2762 14.7076 24.4842C14.7076 24.6922 14.5956 24.7962 14.3716 24.7962H13.4356V26.6202C13.4356 26.9028 13.4942 27.1162 13.6116 27.2602C13.7342 27.4042 13.9316 27.4762 14.2036 27.4762C14.2996 27.4762 14.3822 27.4682 14.4516 27.4522C14.5209 27.4308 14.5822 27.4175 14.6356 27.4122C14.6942 27.4122 14.7422 27.4335 14.7796 27.4762C14.8169 27.5135 14.8356 27.5882 14.8356 27.7002C14.8356 27.7855 14.8196 27.8628 14.7876 27.9322C14.7609 27.9962 14.7102 28.0388 14.6356 28.0602C14.5716 28.0868 14.4836 28.1082 14.3716 28.1242C14.2649 28.1402 14.1689 28.1482 14.0836 28.1482ZM16.5894 28.1482C16.3174 28.1482 16.0748 28.0948 15.8614 27.9882C15.6481 27.8815 15.4774 27.7375 15.3494 27.5562C15.2268 27.3748 15.1654 27.1695 15.1654 26.9402C15.1654 26.6522 15.2374 26.4255 15.3814 26.2602C15.5308 26.0948 15.7734 25.9748 16.1094 25.9002C16.4508 25.8255 16.9094 25.7882 17.4854 25.7882H17.7574V25.5802C17.7574 25.2762 17.6934 25.0575 17.5654 24.9242C17.4374 24.7908 17.2268 24.7242 16.9334 24.7242C16.7628 24.7242 16.5841 24.7455 16.3974 24.7882C16.2161 24.8308 16.0268 24.9028 15.8294 25.0042C15.7174 25.0575 15.6241 25.0655 15.5494 25.0282C15.4801 24.9908 15.4321 24.9322 15.4054 24.8522C15.3788 24.7722 15.3814 24.6895 15.4134 24.6042C15.4454 24.5188 15.5121 24.4548 15.6134 24.4122C15.8481 24.3055 16.0801 24.2282 16.3094 24.1802C16.5388 24.1268 16.7548 24.1002 16.9574 24.1002C17.4908 24.1002 17.8854 24.2282 18.1414 24.4842C18.3974 24.7348 18.5254 25.1295 18.5254 25.6682V27.7242C18.5254 27.9962 18.4001 28.1322 18.1494 28.1322C17.8934 28.1322 17.7654 27.9962 17.7654 27.7242V27.4282C17.6694 27.6522 17.5201 27.8282 17.3174 27.9562C17.1148 28.0842 16.8721 28.1482 16.5894 28.1482ZM16.7494 27.5722C17.0374 27.5722 17.2774 27.4708 17.4694 27.2682C17.6614 27.0655 17.7574 26.8095 17.7574 26.5002V26.2842H17.4934C17.1041 26.2842 16.7974 26.3028 16.5734 26.3402C16.3548 26.3775 16.1974 26.4415 16.1014 26.5322C16.0108 26.6175 15.9654 26.7375 15.9654 26.8922C15.9654 27.0948 16.0348 27.2602 16.1734 27.3882C16.3121 27.5108 16.5041 27.5722 16.7494 27.5722ZM20.0463 28.1322C19.7743 28.1322 19.6383 27.9962 19.6383 27.7242V24.5242C19.6383 24.2522 19.769 24.1162 20.0303 24.1162C20.2916 24.1162 20.4223 24.2522 20.4223 24.5242V24.8682C20.529 24.6282 20.689 24.4442 20.9023 24.3162C21.121 24.1882 21.385 24.1135 21.6943 24.0922C21.8916 24.0762 21.9983 24.1828 22.0143 24.4122C22.0356 24.6468 21.921 24.7748 21.6703 24.7962L21.5183 24.8122C20.809 24.8815 20.4543 25.2468 20.4543 25.9082V27.7242C20.4543 27.9962 20.3183 28.1322 20.0463 28.1322Z" fill="#747488"/>
<defs>
<clipPath id="clip0_1801_54711">
<rect width="16" height="16" fill="white" transform="translate(3.5 0.0761719)"/>
</clipPath>
</defs>
</svg>
